<?xml version="1.0" encoding="UTF-8" standalone="no"?>
<svg
   width="64pt"
   height="64pt"
   viewBox="0 0 22.577778 22.577778"
   version="1.1"
   id="svg831"
   inkscape:version="1.1.1 (1:1.1+202109281949+c3084ef5ed)"
   sodipodi:docname="09 - Online Shop.svg"
   inkscape:export-filename="/media/taufikramadhan/Data/Tr Design Studio/Project Design/TR Creative Design/Icon Design/Project Hiring/Icon Icons/013 - Drinks And Restaurants/Send/3 - Flat/09 - Online Shop.png"
   inkscape:export-xdpi="576"
   inkscape:export-ydpi="576"
   xmlns:inkscape="http://www.inkscape.org/namespaces/inkscape"
   xmlns:sodipodi="http://sodipodi.sourceforge.net/DTD/sodipodi-0.dtd"
   xmlns="http://www.w3.org/2000/svg"
   xmlns:svg="http://www.w3.org/2000/svg"
   xmlns:rdf="http://www.w3.org/1999/02/22-rdf-syntax-ns#"
   xmlns:cc="http://creativecommons.org/ns#"
   xmlns:dc="http://purl.org/dc/elements/1.1/">
  <defs
     id="defs825">
    <pattern
       id="EMFhbasepattern"
       patternUnits="userSpaceOnUse"
       width="6"
       height="6"
       x="0"
       y="0" />
    <pattern
       id="EMFhbasepattern-9"
       patternUnits="userSpaceOnUse"
       width="6"
       height="6"
       x="0"
       y="0" />
    <pattern
       id="EMFhbasepattern-0"
       patternUnits="userSpaceOnUse"
       width="6"
       height="6"
       x="0"
       y="0" />
    <pattern
       id="EMFhbasepattern-7"
       patternUnits="userSpaceOnUse"
       width="6"
       height="6"
       x="0"
       y="0" />
    <pattern
       id="EMFhbasepattern-2"
       patternUnits="userSpaceOnUse"
       width="6"
       height="6"
       x="0"
       y="0" />
    <pattern
       id="EMFhbasepattern-98"
       patternUnits="userSpaceOnUse"
       width="6"
       height="6"
       x="0"
       y="0" />
    <pattern
       id="EMFhbasepattern-6"
       patternUnits="userSpaceOnUse"
       width="6"
       height="6"
       x="0"
       y="0" />
    <pattern
       id="EMFhbasepattern-01"
       patternUnits="userSpaceOnUse"
       width="6"
       height="6"
       x="0"
       y="0" />
    <pattern
       id="EMFhbasepattern-07"
       patternUnits="userSpaceOnUse"
       width="6"
       height="6"
       x="0"
       y="0" />
    <pattern
       id="EMFhbasepattern-8"
       patternUnits="userSpaceOnUse"
       width="6"
       height="6"
       x="0"
       y="0" />
    <pattern
       id="EMFhbasepattern-4"
       patternUnits="userSpaceOnUse"
       width="6"
       height="6"
       x="0"
       y="0" />
    <pattern
       id="EMFhbasepattern-40"
       patternUnits="userSpaceOnUse"
       width="6"
       height="6"
       x="0"
       y="0" />
    <pattern
       id="EMFhbasepattern-08"
       patternUnits="userSpaceOnUse"
       width="6"
       height="6"
       x="0"
       y="0" />
    <pattern
       id="EMFhbasepattern-04"
       patternUnits="userSpaceOnUse"
       width="6"
       height="6"
       x="0"
       y="0" />
    <pattern
       id="EMFhbasepattern-014"
       patternUnits="userSpaceOnUse"
       width="6"
       height="6"
       x="0"
       y="0" />
    <pattern
       id="EMFhbasepattern-27"
       patternUnits="userSpaceOnUse"
       width="6"
       height="6"
       x="0"
       y="0" />
    <pattern
       id="EMFhbasepattern-09"
       patternUnits="userSpaceOnUse"
       width="6"
       height="6"
       x="0"
       y="0" />
    <pattern
       id="EMFhbasepattern-5"
       patternUnits="userSpaceOnUse"
       width="6"
       height="6"
       x="0"
       y="0" />
    <pattern
       id="EMFhbasepattern-018"
       patternUnits="userSpaceOnUse"
       width="6"
       height="6"
       x="0"
       y="0" />
  </defs>
  <sodipodi:namedview
     id="base"
     pagecolor="#ffffff"
     bordercolor="#666666"
     borderopacity="1.0"
     inkscape:pageopacity="0.0"
     inkscape:pageshadow="2"
     inkscape:zoom="4.4249417"
     inkscape:cx="53.334036"
     inkscape:cy="54.915978"
     inkscape:document-units="pt"
     inkscape:current-layer="layer1"
     showgrid="false"
     units="pt"
     inkscape:window-width="1366"
     inkscape:window-height="705"
     inkscape:window-x="0"
     inkscape:window-y="31"
     inkscape:window-maximized="1"
     inkscape:pagecheckerboard="true"
     inkscape:showpageshadow="false"
     inkscape:object-paths="true"
     inkscape:snap-intersection-paths="true"
     inkscape:snap-smooth-nodes="true"
     inkscape:snap-midpoints="true"
     showguides="true"
     inkscape:snap-bbox="true"
     inkscape:bbox-nodes="true"
     inkscape:snap-nodes="false"
     inkscape:snap-global="true"
     inkscape:document-rotation="0">
    <inkscape:grid
       type="xygrid"
       id="grid1378" />
    <sodipodi:guide
       position="0.97013831,21.607643"
       orientation="78.000048,0"
       id="guide1380"
       inkscape:locked="false" />
    <sodipodi:guide
       position="0.97013831,0.97013129"
       orientation="0,78.000005"
       id="guide1382"
       inkscape:locked="false" />
    <sodipodi:guide
       position="21.607639,0.97013129"
       orientation="-78.000048,0"
       id="guide1384"
       inkscape:locked="false" />
    <sodipodi:guide
       position="21.607639,21.607643"
       orientation="0,-78.000005"
       id="guide1386"
       inkscape:locked="false" />
  </sodipodi:namedview>
  <metadata
     id="metadata828">
    <rdf:RDF>
      <cc:Work
         rdf:about="">
        <dc:format>image/svg+xml</dc:format>
        <dc:type
           rdf:resource="http://purl.org/dc/dcmitype/StillImage" />
      </cc:Work>
    </rdf:RDF>
  </metadata>
  <g
     inkscape:label="Icon"
     inkscape:groupmode="layer"
     id="layer1"
     transform="translate(0,-274.42223)">
    <g
       id="g649439"
       style="display:inline;stroke-width:0.794883"
       transform="matrix(1.2580466,0,0,1.2580466,0.63726079,-77.278395)">
      <path
         style="color:#000000;fill:#e2f0fa;stroke-width:0.794883;stroke-linecap:round;stroke-linejoin:round;-inkscape-stroke:none"
         d="m 3.4394531,280.33203 a 0.26460996,0.26460996 0 0 0 -0.2636718,0.26367 v 15.875 a 0.26460996,0.26460996 0 0 0 0.2636718,0.26563 H 13.494141 a 0.26460996,0.26460996 0 0 0 0.263672,-0.26563 v -15.875 a 0.26460996,0.26460996 0 0 0 -0.263672,-0.26367 z"
         id="path575116" />
      <path
         style="color:#000000;fill:#a8c2e1;stroke-width:0.794883;stroke-linecap:round;stroke-linejoin:round;-inkscape-stroke:none"
         d="m 4.4980469,290.65039 a 0.26460996,0.26460996 0 0 0 -0.265625,0.26367 v 3.43946 a 0.26460996,0.26460996 0 0 0 0.265625,0.26562 H 7.9375 a 0.26460996,0.26460996 0 0 0 0.2636719,-0.26562 v -3.43946 A 0.26460996,0.26460996 0 0 0 7.9375,290.65039 Z"
         id="path575128" />
      <path
         style="color:#000000;fill:#3a4d5c;stroke-width:0.794883;stroke-linecap:round;stroke-linejoin:round;-inkscape-stroke:none"
         d="m 4.7617187,295.14844 a 0.2645835,0.2645835 0 0 0 -0.2636718,0.26367 0.2645835,0.2645835 0 0 0 0.2636718,0.26562 h 0.265625 a 0.2645835,0.2645835 0 0 0 0.2636719,-0.26562 0.2645835,0.2645835 0 0 0 -0.2636719,-0.26367 z"
         id="path575134" />
      <path
         style="color:#000000;fill:#3a4d5c;stroke-width:0.794883;stroke-linecap:round;stroke-linejoin:round;-inkscape-stroke:none"
         d="m 6.0859375,295.14844 a 0.2645835,0.2645835 0 0 0 -0.265625,0.26367 0.2645835,0.2645835 0 0 0 0.265625,0.26562 H 7.6738281 A 0.2645835,0.2645835 0 0 0 7.9375,295.41211 0.2645835,0.2645835 0 0 0 7.6738281,295.14844 Z"
         id="path575140" />
      <path
         style="color:#000000;fill:#3a4d5c;stroke-width:0.794883;stroke-linecap:round;stroke-linejoin:round;-inkscape-stroke:none"
         d="m 4.4980469,289.5918 a 0.2645835,0.2645835 0 0 0 -0.265625,0.26367 0.2645835,0.2645835 0 0 0 0.265625,0.26562 h 1.3222656 a 0.2645835,0.2645835 0 0 0 0.265625,-0.26562 0.2645835,0.2645835 0 0 0 -0.265625,-0.26367 z"
         id="path575146" />
      <path
         style="color:#000000;fill:#a8c2e1;stroke-width:0.794883;stroke-linecap:round;stroke-linejoin:round;-inkscape-stroke:none"
         d="m 8.9960938,290.65039 a 0.26460996,0.26460996 0 0 0 -0.265625,0.26367 v 3.43946 a 0.26460996,0.26460996 0 0 0 0.265625,0.26562 h 3.4394532 a 0.26460996,0.26460996 0 0 0 0.263672,-0.26562 v -3.43946 a 0.26460996,0.26460996 0 0 0 -0.263672,-0.26367 z"
         id="path575152" />
      <path
         style="color:#000000;fill:#3a4d5c;stroke-width:0.794883;stroke-linecap:round;stroke-linejoin:round;-inkscape-stroke:none"
         d="m 9.2597656,295.14844 a 0.2645835,0.2645835 0 0 0 -0.2636718,0.26367 0.2645835,0.2645835 0 0 0 0.2636718,0.26562 h 2.9101564 a 0.2645835,0.2645835 0 0 0 0.265625,-0.26562 0.2645835,0.2645835 0 0 0 -0.265625,-0.26367 z"
         id="path575158" />
      <path
         style="color:#000000;fill:#a8c2e1;stroke-width:0.794883;stroke-linecap:round;stroke-linejoin:round;-inkscape-stroke:none"
         d="m 4.4980469,283.24219 a 0.26460996,0.26460996 0 0 0 -0.265625,0.26367 v 5.29297 a 0.26460996,0.26460996 0 0 0 0.265625,0.26367 h 7.9375001 a 0.26460996,0.26460996 0 0 0 0.263672,-0.26367 v -5.29297 a 0.26460996,0.26460996 0 0 0 -0.263672,-0.26367 z"
         id="path575164" />
      <g
         id="g613707"
         style="stroke-width:0.794883">
        <path
           style="color:#000000;fill:#f6fbfe;stroke-width:0.794883;stroke-linecap:round;stroke-linejoin:round;-inkscape-stroke:none"
           d="m 7.9375,285.88672 a 0.2645835,0.2645835 0 0 0 -0.2636719,0.26562 0.2645835,0.2645835 0 0 0 0.2636719,0.26368 h 0.5292969 v 0.26562 c 9e-7,0.14926 -0.1163653,0.26367 -0.265625,0.26367 H 7.7714844 a 0.2645835,0.2645835 0 0 0 -0.2636719,0.26563 0.2645835,0.2645835 0 0 0 0.2636719,0.26367 h 0.4296875 c 0.4352437,0 0.7949245,-0.35773 0.7949219,-0.79297 v -0.26562 c -7.4e-6,-0.28911 -0.240189,-0.5293 -0.5292969,-0.5293 z"
           id="path139645" />
        <path
           id="path606325"
           style="color:#000000;fill:#5f8ea2;fill-opacity:1;stroke-width:3.00428;stroke-linecap:round;stroke-linejoin:round;-inkscape-stroke:none"
           d="M 30,21.998047 A 1.0000006,1.0000006 0 0 0 29.003906,23.001953 1.0000006,1.0000006 0 0 0 30,23.998047 h 1.806641 l 0.234375,-1.882813 c 0.0049,-0.03915 0.0074,-0.07832 0.0098,-0.117187 -0.01698,-4.41e-4 -0.03371,0 -0.05078,0 z m 1.578125,3.822265 c -0.162976,0.112521 -0.363265,0.177735 -0.582031,0.177735 h -1.623047 a 1.0000006,1.0000006 0 0 0 -0.996094,1.003906 1.0000006,1.0000006 0 0 0 0.996094,0.996094 h 1.623047 c 0.06393,0 0.128402,-0.0018 0.191406,-0.0059 0.11181,-0.266516 0.189274,-0.551307 0.226562,-0.84961 z"
           transform="matrix(0.26458334,0,0,0.26458334,0,280.06666)" />
      </g>
      <path
         style="color:#000000;fill:#f6fbfe;stroke-width:0.794883;stroke-linecap:round;stroke-linejoin:round;-inkscape-stroke:none"
         d="m 5.8203125,285.35742 c -0.2950868,0 -0.5307412,0.26774 -0.4941406,0.56055 l 0.1660156,1.33008 c 0.053788,0.4303 0.4237704,0.75586 0.8574219,0.75586 h 0.7949218 c 0.4336515,0 0.8036339,-0.32556 0.8574219,-0.75586 l 0.1660157,-1.33008 c 0.0366,-0.29281 -0.1990538,-0.56055 -0.4941407,-0.56055 z"
         id="path575170" />
      <path
         style="color:#000000;fill:#3a4d5c;stroke:none;stroke-width:0.794883;stroke-linecap:round;stroke-linejoin:round;-inkscape-stroke:none"
         d="m 6.2173178,284.29975 a 0.2645835,0.2645835 0 0 0 -0.2636719,0.26562 v 0.26367 a 0.2645835,0.2645835 0 0 0 0.2636719,0.26563 0.2645835,0.2645835 0 0 0 0.265625,-0.26563 v -0.26367 a 0.2645835,0.2645835 0 0 0 -0.265625,-0.26562 z"
         id="path139218" />
      <path
         style="color:#000000;fill:#3a4d5c;stroke:none;stroke-width:0.794883;stroke-linecap:round;stroke-linejoin:round;-inkscape-stroke:none"
         d="m 7.2759115,284.29975 a 0.2645835,0.2645835 0 0 0 -0.2636719,0.26562 v 0.26367 a 0.2645835,0.2645835 0 0 0 0.2636719,0.26563 0.2645835,0.2645835 0 0 0 0.265625,-0.26563 v -0.26367 a 0.2645835,0.2645835 0 0 0 -0.265625,-0.26562 z"
         id="path139300" />
      <path
         style="color:#000000;fill:#3a4d5c;stroke-width:0.794883;stroke-linecap:round;stroke-linejoin:round;-inkscape-stroke:none"
         d="m 9.5253906,284.30078 a 0.26460996,0.26460996 0 0 0 -0.265625,0.26367 v 1.0586 a 0.26460996,0.26460996 0 0 0 0.265625,0.26367 h 1.5878904 a 0.26460996,0.26460996 0 0 0 0.263672,-0.26367 v -1.0586 a 0.26460996,0.26460996 0 0 0 -0.263672,-0.26367 z"
         id="path575188" />
      <path
         style="color:#000000;fill:#3a4d5c;stroke-width:0.794883;stroke-linecap:round;stroke-linejoin:round;-inkscape-stroke:none"
         d="m 9.5253906,286.41602 a 0.2645835,0.2645835 0 0 0 -0.265625,0.26562 0.2645835,0.2645835 0 0 0 0.265625,0.26367 h 1.8515624 a 0.2645835,0.2645835 0 0 0 0.265625,-0.26367 0.2645835,0.2645835 0 0 0 -0.265625,-0.26562 z"
         id="path147272" />
      <path
         style="color:#000000;fill:#3a4d5c;stroke-width:0.794883;stroke-linecap:round;stroke-linejoin:round;-inkscape-stroke:none"
         d="m 9.5253906,287.47461 a 0.2645835,0.2645835 0 0 0 -0.265625,0.26562 0.2645835,0.2645835 0 0 0 0.265625,0.26368 h 0.5292974 a 0.2645835,0.2645835 0 0 0 0.263671,-0.26368 0.2645835,0.2645835 0 0 0 -0.263671,-0.26562 z"
         id="path148305" />
      <path
         id="path575220"
         style="color:#000000;fill:#9a605c;stroke-width:3.00428;stroke-linecap:round;stroke-linejoin:round;-inkscape-stroke:none"
         d="m 19.998047,45 a 1.0001006,1.0001006 0 0 0 -0.996094,1.003906 v 2 a 1.0001006,1.0001006 0 0 0 0.01367,0.16211 l 0.802734,4.835937 h 7.363282 l 0.802734,-4.835937 A 1.0001006,1.0001006 0 0 0 28,48.003906 v -2 A 1.0001006,1.0001006 0 0 0 27.003906,45 Z"
         transform="matrix(0.26458334,0,0,0.26458334,0,280.06666)" />
      <path
         id="path621162"
         style="color:#000000;fill:#734845;fill-opacity:1;stroke-width:0.794883;stroke-linecap:round;stroke-linejoin:round;-inkscape-stroke:none"
         d="m 5.29115,291.9729 a 0.26460996,0.26460996 0 0 0 -0.2635498,0.26562 v 0.26355 H 6.615617 a 0.26460996,0.26460996 0 0 1 0.2635498,0.26561 v 0.52917 a 0.26460996,0.26460996 0 0 1 -0.00413,0.0429 l -0.1245402,0.75034 h 0.4413168 l 0.2123901,-1.2795 a 0.26460996,0.26460996 0 0 0 0.00413,-0.0429 v -0.52916 a 0.26460996,0.26460996 0 0 0 -0.2635498,-0.26562 z" />
      <path
         style="color:#000000;fill:#734845;fill-opacity:1;stroke-width:0.794883;stroke-linecap:round;stroke-linejoin:round;-inkscape-stroke:none"
         d="m 5.8203125,291.70898 a 0.2645835,0.2645835 0 0 0 -0.2636719,0.26368 v 0.26562 a 0.2645835,0.2645835 0 0 0 0.2636719,0.26367 0.2645835,0.2645835 0 0 0 0.265625,-0.26367 v -0.26562 a 0.2645835,0.2645835 0 0 0 -0.265625,-0.26368 z"
         id="path182886" />
      <path
         id="path575230"
         style="color:#000000;fill:#9a605c;stroke-width:3.00428;stroke-linecap:round;stroke-linejoin:round;-inkscape-stroke:none"
         d="m 36.998047,45 a 1.0001006,1.0001006 0 0 0 -0.996094,1.003906 v 2 a 1.0001006,1.0001006 0 0 0 0.01367,0.16211 l 0.804687,4.835937 h 7.361329 l 0.802734,-4.835937 A 1.0001006,1.0001006 0 0 0 45,48.003906 v -2 A 1.0001006,1.0001006 0 0 0 44.003906,45 Z"
         transform="matrix(0.26458334,0,0,0.26458334,0,280.06666)" />
      <path
         id="path635651"
         style="color:#000000;fill:#734845;fill-opacity:1;stroke-width:0.794883;stroke-linecap:round;stroke-linejoin:round;-inkscape-stroke:none"
         d="m 9.7890668,291.9729 a 0.26460996,0.26460996 0 0 0 -0.2635498,0.26562 v 0.26355 h 1.588017 a 0.26460996,0.26460996 0 0 1 0.26355,0.26561 v 0.52917 a 0.26460996,0.26460996 0 0 1 -0.0041,0.0429 l -0.124541,0.75034 h 0.441317 l 0.21239,-1.2795 a 0.26460996,0.26460996 0 0 0 0.0041,-0.0429 v -0.52916 a 0.26460996,0.26460996 0 0 0 -0.26355,-0.26562 z" />
      <path
         style="color:#000000;fill:#734845;fill-opacity:1;stroke-width:0.794883;stroke-linecap:round;stroke-linejoin:round;-inkscape-stroke:none"
         d="m 10.318359,291.70898 a 0.2645835,0.2645835 0 0 0 -0.263671,0.26368 v 0.26562 a 0.2645835,0.2645835 0 0 0 0.263671,0.26367 0.2645835,0.2645835 0 0 0 0.265625,-0.26367 v -0.26562 a 0.2645835,0.2645835 0 0 0 -0.265625,-0.26368 z"
         id="path183141" />
      <path
         id="path593227"
         style="color:#000000;fill:#a8c2e1;fill-opacity:1;stroke-width:0.794883;stroke-linecap:round;stroke-linejoin:round;-inkscape-stroke:none"
         d="m 13.22865,284.76555 v 11.97089 h 0.265617 c 0.14612,-5.8e-4 0.264107,-0.11949 0.26355,-0.26561 v -15.875 c -5.81e-4,-0.14532 -0.118237,-0.26297 -0.26355,-0.26355 H 3.4395835 c -0.1453131,5.8e-4 -0.2629689,0.11823 -0.2635499,0.26355 v 0.26561 h 6.1485018 a 3.9041146,3.9041146 45 0 1 3.9041146,3.90411 z"
         sodipodi:nodetypes="cccccccccc" />
      <path
         style="color:#000000;fill:#3a4d5c;stroke-width:0.794883;stroke-linecap:round;stroke-linejoin:round;-inkscape-stroke:none"
         d="m 5.0273437,281.125 c -0.4352417,0 -0.7949218,0.35773 -0.7949218,0.79297 0,0.43524 0.3596801,0.79492 0.7949218,0.79492 0.4352418,0 0.7929688,-0.35968 0.7929688,-0.79492 0,-0.43524 -0.357727,-0.79297 -0.7929688,-0.79297 z"
         id="path575122" />
      <path
         style="color:#000000;fill:#a8c2e1;stroke-width:0.794883;stroke-linecap:round;stroke-linejoin:round;-inkscape-stroke:none"
         d="m 7.3203125,281.125 c -0.4352418,0 -0.7929688,0.35773 -0.7929688,0.79297 0,0.43524 0.357727,0.79492 0.7929688,0.79492 0.4352418,0 0.7929688,-0.35968 0.7929688,-0.79492 0,-0.43524 -0.357727,-0.79297 -0.7929688,-0.79297 z"
         id="path575202" />
      <path
         style="color:#000000;fill:#a8c2e1;stroke-width:0.794883;stroke-linecap:round;stroke-linejoin:round;-inkscape-stroke:none"
         d="m 9.6132813,281.125 c -0.4352418,0 -0.7929688,0.35773 -0.7929688,0.79297 0,0.43524 0.357727,0.79492 0.7929688,0.79492 0.4352417,0 0.7929687,-0.35968 0.7929687,-0.79492 0,-0.43524 -0.357727,-0.79297 -0.7929687,-0.79297 z"
         id="path575208" />
      <path
         style="color:#000000;fill:#a8c2e1;stroke-width:0.794883;stroke-linecap:round;stroke-linejoin:round;-inkscape-stroke:none"
         d="m 11.90625,281.125 c -0.435242,0 -0.792969,0.35773 -0.792969,0.79297 0,0.43524 0.357727,0.79492 0.792969,0.79492 0.435242,0 0.792969,-0.35968 0.792969,-0.79492 0,-0.43524 -0.357727,-0.79297 -0.792969,-0.79297 z"
         id="path575214" />
      <path
         id="path580718"
         style="color:#000000;fill:#143441;fill-opacity:1;stroke-width:0.794883;stroke-linecap:round;stroke-linejoin:round;-inkscape-stroke:none"
         d="m 5.027596,281.12474 c -0.3556928,0 -0.6609863,0.2389 -0.7606771,0.56379 0.073358,-0.0226 0.1512277,-0.0346 0.2315104,-0.0346 0.4352418,0 0.7927165,0.358 0.7927165,0.79324 0,0.0803 -0.012039,0.15763 -0.034623,0.23099 0.3248873,-0.0997 0.5637899,-0.40447 0.5637899,-0.76016 0,-0.43524 -0.3574747,-0.79323 -0.7927165,-0.79323 z" />
      <path
         id="path588745"
         style="color:#000000;fill:#91a9d9;fill-opacity:1;stroke-width:0.794883;stroke-linecap:round;stroke-linejoin:round;-inkscape-stroke:none"
         d="m 7.3042927,281.14223 c -0.3556928,0 -0.6609863,0.2389 -0.7606771,0.56379 0.073358,-0.0226 0.1512277,-0.0346 0.2315104,-0.0346 0.4352418,0 0.7927165,0.358 0.7927165,0.79324 0,0.0803 -0.012039,0.15763 -0.034623,0.23099 0.3248873,-0.0997 0.5637899,-0.40447 0.5637899,-0.76016 0,-0.43524 -0.3574747,-0.79323 -0.7927165,-0.79323 z" />
      <path
         id="path592493"
         style="color:#000000;fill:#91a9d9;fill-opacity:1;stroke-width:0.794883;stroke-linecap:round;stroke-linejoin:round;-inkscape-stroke:none"
         d="m 9.6100851,281.14223 c -0.3556928,0 -0.6609863,0.2389 -0.7606771,0.56379 0.073358,-0.0226 0.1512277,-0.0346 0.2315104,-0.0346 0.4352418,0 0.7927165,0.358 0.7927165,0.79324 0,0.0803 -0.01204,0.15763 -0.03462,0.23099 0.3248871,-0.0997 0.5637901,-0.40447 0.5637901,-0.76016 0,-0.43524 -0.357475,-0.79323 -0.7927167,-0.79323 z" />
      <path
         id="path592495"
         style="color:#000000;fill:#91a9d9;fill-opacity:1;stroke-width:0.794883;stroke-linecap:round;stroke-linejoin:round;-inkscape-stroke:none"
         d="m 11.906247,281.12497 c -0.355693,0 -0.660986,0.2389 -0.760677,0.56379 0.07336,-0.0226 0.151228,-0.0346 0.23151,-0.0346 0.435242,0 0.792717,0.358 0.792717,0.79324 0,0.0803 -0.01204,0.15763 -0.03462,0.23099 0.324887,-0.0997 0.56379,-0.40447 0.56379,-0.76016 0,-0.43524 -0.357475,-0.79323 -0.792717,-0.79323 z" />
      <path
         id="path605340"
         style="color:#000000;fill:#91a9d9;fill-opacity:1;stroke-width:0.794883;stroke-linecap:round;stroke-linejoin:round;-inkscape-stroke:none"
         d="m 12.1698,285.69308 v 3.36941 h 0.265617 c 0.145313,-5.8e-4 0.262969,-0.11824 0.26355,-0.26355 v -5.29322 c -5.81e-4,-0.14531 -0.118237,-0.26297 -0.26355,-0.26355 H 4.4979166 c -0.1461198,-5.5e-4 -0.2650326,0.11743 -0.2656168,0.26355 v 0.26562 h 6.0157612 a 1.9217391,1.9217391 0 0 1 1.921739,1.92174 z"
         sodipodi:nodetypes="cccccccccc" />
      <path
         id="path618561"
         style="color:#000000;fill:#91a9d9;fill-opacity:1;stroke-width:0.794883;stroke-linecap:round;stroke-linejoin:round;-inkscape-stroke:none"
         d="m 7.6720043,292.52089 v 2.09825 h 0.2656168 c 0.1461196,-5.8e-4 0.2641071,-0.1195 0.2635499,-0.26562 v -3.43958 C 8.20059,290.76863 8.0829343,290.65097 7.9376211,290.65039 H 4.4980377 c -0.1461198,-5.6e-4 -0.2650325,0.11743 -0.2656169,0.26355 v 0.26562 h 2.0982517 a 1.3413318,1.3413318 0 0 1 1.3413318,1.34133 z"
         sodipodi:nodetypes="cccccccccc" />
      <path
         id="path621160"
         style="color:#000000;fill:#91a9d9;fill-opacity:1;stroke-width:0.794883;stroke-linecap:round;stroke-linejoin:round;-inkscape-stroke:none"
         d="m 12.170052,292.52089 v 2.09825 h 0.265617 c 0.14612,-5.8e-4 0.264107,-0.1195 0.26355,-0.26562 v -3.43958 c -5.81e-4,-0.14531 -0.118237,-0.26297 -0.26355,-0.26355 H 8.9960857 c -0.1461198,-5.6e-4 -0.2650325,0.11743 -0.2656169,0.26355 v 0.26562 H 10.82872 a 1.3413318,1.3413318 0 0 1 1.341332,1.34133 z"
         sodipodi:nodetypes="cccccccccc" />
      <path
         id="path647542"
         style="color:#000000;fill:#143441;fill-opacity:1;stroke-width:0.794883;stroke-linecap:round;stroke-linejoin:round;-inkscape-stroke:none"
         d="m 9.5255169,284.30103 a 0.26460996,0.26460996 0 0 0 -0.2656168,0.26355 v 0.26561 h 1.3244669 a 0.26460996,0.26460996 0 0 1 0.26355,0.26355 v 0.79324 h 0.265617 a 0.26460996,0.26460996 0 0 0 0.26355,-0.26407 v -1.05833 a 0.26460996,0.26460996 0 0 0 -0.26355,-0.26355 z" />
    </g>
  </g>
</svg>
