<?xml version="1.0" encoding="UTF-8" standalone="no"?>
<svg
   width="64pt"
   height="64pt"
   viewBox="0 0 22.577778 22.577778"
   version="1.1"
   id="svg831"
   inkscape:version="1.1.2 (1:1.1+202202050950+0a00cf5339)"
   sodipodi:docname="11 - Delivery Courier.svg"
   inkscape:export-filename="/media/taufikramadhan/Data/Tr Design Studio/Project Design/TR Creative Design/Icon Design/Project Hiring/Icon Icons/019 - Commerce And Shopping/5 - Send/11 - Delivery Courier.png"
   inkscape:export-xdpi="576"
   inkscape:export-ydpi="576"
   xmlns:inkscape="http://www.inkscape.org/namespaces/inkscape"
   xmlns:sodipodi="http://sodipodi.sourceforge.net/DTD/sodipodi-0.dtd"
   xmlns="http://www.w3.org/2000/svg"
   xmlns:svg="http://www.w3.org/2000/svg"
   xmlns:rdf="http://www.w3.org/1999/02/22-rdf-syntax-ns#"
   xmlns:cc="http://creativecommons.org/ns#"
   xmlns:dc="http://purl.org/dc/elements/1.1/">
  <defs
     id="defs825">
    <pattern
       id="EMFhbasepattern"
       patternUnits="userSpaceOnUse"
       width="6"
       height="6"
       x="0"
       y="0" />
    <pattern
       id="EMFhbasepattern-9"
       patternUnits="userSpaceOnUse"
       width="6"
       height="6"
       x="0"
       y="0" />
    <pattern
       id="EMFhbasepattern-0"
       patternUnits="userSpaceOnUse"
       width="6"
       height="6"
       x="0"
       y="0" />
    <pattern
       id="EMFhbasepattern-7"
       patternUnits="userSpaceOnUse"
       width="6"
       height="6"
       x="0"
       y="0" />
    <pattern
       id="EMFhbasepattern-2"
       patternUnits="userSpaceOnUse"
       width="6"
       height="6"
       x="0"
       y="0" />
    <pattern
       id="EMFhbasepattern-98"
       patternUnits="userSpaceOnUse"
       width="6"
       height="6"
       x="0"
       y="0" />
    <pattern
       id="EMFhbasepattern-6"
       patternUnits="userSpaceOnUse"
       width="6"
       height="6"
       x="0"
       y="0" />
    <pattern
       id="EMFhbasepattern-01"
       patternUnits="userSpaceOnUse"
       width="6"
       height="6"
       x="0"
       y="0" />
    <pattern
       id="EMFhbasepattern-07"
       patternUnits="userSpaceOnUse"
       width="6"
       height="6"
       x="0"
       y="0" />
    <pattern
       id="EMFhbasepattern-8"
       patternUnits="userSpaceOnUse"
       width="6"
       height="6"
       x="0"
       y="0" />
    <pattern
       id="EMFhbasepattern-4"
       patternUnits="userSpaceOnUse"
       width="6"
       height="6"
       x="0"
       y="0" />
    <pattern
       id="EMFhbasepattern-40"
       patternUnits="userSpaceOnUse"
       width="6"
       height="6"
       x="0"
       y="0" />
    <pattern
       id="EMFhbasepattern-08"
       patternUnits="userSpaceOnUse"
       width="6"
       height="6"
       x="0"
       y="0" />
    <pattern
       id="EMFhbasepattern-04"
       patternUnits="userSpaceOnUse"
       width="6"
       height="6"
       x="0"
       y="0" />
    <pattern
       id="EMFhbasepattern-014"
       patternUnits="userSpaceOnUse"
       width="6"
       height="6"
       x="0"
       y="0" />
    <pattern
       id="EMFhbasepattern-27"
       patternUnits="userSpaceOnUse"
       width="6"
       height="6"
       x="0"
       y="0" />
    <pattern
       id="EMFhbasepattern-09"
       patternUnits="userSpaceOnUse"
       width="6"
       height="6"
       x="0"
       y="0" />
    <pattern
       id="EMFhbasepattern-5"
       patternUnits="userSpaceOnUse"
       width="6"
       height="6"
       x="0"
       y="0" />
    <pattern
       id="EMFhbasepattern-018"
       patternUnits="userSpaceOnUse"
       width="6"
       height="6"
       x="0"
       y="0" />
  </defs>
  <sodipodi:namedview
     id="base"
     pagecolor="#ffffff"
     bordercolor="#666666"
     borderopacity="1.0"
     inkscape:pageopacity="0.0"
     inkscape:pageshadow="2"
     inkscape:zoom="4.4249417"
     inkscape:cx="43.277406"
     inkscape:cy="55.141969"
     inkscape:document-units="pt"
     inkscape:current-layer="layer1"
     showgrid="false"
     units="pt"
     inkscape:window-width="1366"
     inkscape:window-height="705"
     inkscape:window-x="0"
     inkscape:window-y="31"
     inkscape:window-maximized="1"
     inkscape:pagecheckerboard="true"
     inkscape:showpageshadow="false"
     inkscape:object-paths="true"
     inkscape:snap-intersection-paths="true"
     inkscape:snap-smooth-nodes="true"
     inkscape:snap-midpoints="true"
     showguides="true"
     inkscape:snap-bbox="true"
     inkscape:bbox-nodes="true"
     inkscape:snap-nodes="false"
     inkscape:snap-global="true"
     inkscape:document-rotation="0">
    <inkscape:grid
       type="xygrid"
       id="grid1378" />
    <sodipodi:guide
       position="0.97013831,21.607643"
       orientation="78.000048,0"
       id="guide1380"
       inkscape:locked="false" />
    <sodipodi:guide
       position="0.97013831,0.97013129"
       orientation="0,78.000005"
       id="guide1382"
       inkscape:locked="false" />
    <sodipodi:guide
       position="21.607639,0.97013129"
       orientation="-78.000048,0"
       id="guide1384"
       inkscape:locked="false" />
    <sodipodi:guide
       position="21.607639,21.607643"
       orientation="0,-78.000005"
       id="guide1386"
       inkscape:locked="false" />
  </sodipodi:namedview>
  <metadata
     id="metadata828">
    <rdf:RDF>
      <cc:Work
         rdf:about="">
        <dc:format>image/svg+xml</dc:format>
        <dc:type
           rdf:resource="http://purl.org/dc/dcmitype/StillImage" />
      </cc:Work>
    </rdf:RDF>
  </metadata>
  <g
     inkscape:label="Icon"
     inkscape:groupmode="layer"
     id="layer1"
     transform="translate(0,-274.42223)">
    <g
       id="g1045840"
       style="display:inline;stroke-width:0.794883"
       transform="matrix(1.2580463,0,0,1.2580463,-76.11095,-77.278311)">
      <path
         style="color:#000000;fill:#ffa185;stroke-width:0.794883;stroke-linecap:round;stroke-linejoin:round;stroke-miterlimit:1.5;-inkscape-stroke:none"
         d="m 69.017578,286.46094 a 0.26460996,0.26460996 0 0 0 -0.259766,0.20703 L 68.464844,288 a 0.26460996,0.26460996 0 0 0 0.138672,0.29297 l 1.324218,0.66211 a 0.26460996,0.26460996 0 0 0 0.236328,0 l 1.322266,-0.66211 A 0.26460996,0.26460996 0 0 0 71.626953,288 l -0.294922,-1.33203 a 0.26460996,0.26460996 0 0 0 -0.257812,-0.20703 z"
         id="path2596725" />
      <path
         style="color:#000000;fill:#dc1c4b;fill-opacity:1;stroke-width:0.794883;stroke-linecap:round;stroke-linejoin:round;stroke-miterlimit:1.5;-inkscape-stroke:none"
         d="m 70.044922,280.33203 c -1.128326,0 -1.825385,0.4745 -2.191406,1.04492 -0.366022,0.57042 -0.423829,1.20347 -0.423829,1.57032 a 0.26460996,0.26460996 0 0 0 0.263672,0.26562 h 4.705078 a 0.26460996,0.26460996 0 0 0 0.263672,-0.26562 c 0,-0.36685 -0.05781,-0.99989 -0.423828,-1.57032 -0.36602,-0.57042 -1.065029,-1.04492 -2.193359,-1.04492 z"
         id="path2596731" />
      <path
         style="color:#000000;fill:#dc1c4b;fill-opacity:1;stroke-width:3.00429;stroke-linecap:round;stroke-linejoin:round;stroke-miterlimit:1.5;-inkscape-stroke:none"
         d="m 244.45119,35.933597 c -0.67534,2.013316 -0.70898,4.171059 -0.70898,5.654297 V 57.99805 c -0.002,0.552453 0.44364,1.001941 0.99609,1.003906 h 40.00391 c 0.55228,-0.0022 0.99825,-0.451621 0.99609,-1.003906 V 41.587891 c 0,-1.483238 -0.0336,-3.640981 -0.70898,-5.654297 -0.67535,-2.013317 -2.14534,-3.95749 -4.83103,-4.532243 L 273.75,30.589844 c -0.0811,-0.01 -0.16307,-0.01 -0.24414,0 l -8.76953,1.099609 -8.76172,-1.099609 c -0.0837,-0.01062 -0.1683,-0.01062 -0.25195,0 l -6.44726,0.811525 c -2.68473,0.574738 -4.14886,2.518911 -4.82421,4.532228 z"
         transform="matrix(0.26458334,0,0,0.26458334,0,280.06666)"
         id="path2596737"
         sodipodi:nodetypes="ssccccsscccccccs" />
      <path
         style="color:#000000;fill:#ffa185;stroke-width:0.794883;stroke-linecap:round;stroke-linejoin:round;stroke-miterlimit:1.5;-inkscape-stroke:none"
         d="m 73.574219,295.67773 h 1.763672 c 0.146168,-5.2e-4 0.26423,-0.11945 0.263671,-0.26562 v -3.02734 h -2.027343 z"
         id="path2596755"
         sodipodi:nodetypes="cccccc" />
      <path
         id="path1034395"
         style="color:#000000;fill:#ff7247;fill-opacity:1;stroke-width:0.794883;stroke-linecap:round;stroke-linejoin:round;stroke-miterlimit:1.5;-inkscape-stroke:none"
         d="m 73.574322,292.38477 v 3.29282 h 0.640143 v -2.16292 a 0.60072869,0.60072869 135 0 1 0.600729,-0.60073 h 0.786394 v -0.52917 z"
         sodipodi:nodetypes="ccccccc" />
      <path
         style="color:#000000;fill:#b01d47;fill-opacity:1;stroke-width:0.794883;stroke-linecap:round;stroke-linejoin:round;stroke-miterlimit:1.5;-inkscape-stroke:none"
         d="m 73.837891,295.67759 v -4.60728 c 5.74e-4,-0.14617 -0.117497,-0.26512 -0.263672,-0.26562 -0.146938,-5.8e-4 -0.266202,0.11868 -0.265625,0.26562 v 4.60728 z"
         id="path52375"
         sodipodi:nodetypes="cccccc" />
      <path
         style="color:#000000;fill:#b01d47;fill-opacity:1;stroke-width:0.794883;stroke-linecap:round;stroke-linejoin:round;stroke-miterlimit:1.5;-inkscape-stroke:none"
         d="m 66.517578,290.80469 a 0.2645835,0.2645835 0 0 0 -0.263672,0.26562 v 0.90235 a 0.2645835,0.2645835 0 0 0 0.263672,0.26562 0.2645835,0.2645835 0 0 0 0.265625,-0.26562 v -0.90235 a 0.2645835,0.2645835 0 0 0 -0.265625,-0.26562 z"
         id="path58703" />
      <path
         style="color:#000000;fill:#b01d47;fill-opacity:1;stroke-width:0.794883;stroke-linecap:round;stroke-linejoin:round;stroke-miterlimit:1.5;-inkscape-stroke:none"
         d="m 71.808594,291.20898 a 0.2645835,0.2645835 0 0 0 -0.263672,0.26368 0.2645835,0.2645835 0 0 0 0.263672,0.26562 h 0.294922 a 0.2645835,0.2645835 0 0 0 0.263671,-0.26562 0.2645835,0.2645835 0 0 0 -0.263671,-0.26368 z"
         id="path59303" />
      <path
         style="color:#000000;fill:#feae72;stroke-width:0.794883;stroke-linecap:round;stroke-linejoin:round;stroke-miterlimit:1.5;-inkscape-stroke:none"
         d="m 63.953125,291.70898 c -0.333269,0 -0.609375,0.27611 -0.609375,0.60938 v 3.80664 c 0,0.33327 0.276106,0.61133 0.609375,0.61133 h 3.806641 c 0.333268,0 0.609375,-0.27806 0.609375,-0.61133 v -3.80664 c 0,-0.33327 -0.276107,-0.60938 -0.609375,-0.60938 z"
         id="path2596719" />
      <path
         id="path1009537"
         style="color:#000000;fill:#fd913c;fill-opacity:1;stroke-width:0.794883;stroke-linecap:round;stroke-linejoin:round;stroke-miterlimit:1.5;-inkscape-stroke:none"
         d="m 63.953204,291.70884 c -0.306091,0 -0.564073,0.23298 -0.604097,0.52917 h 3.881416 c 0.333267,0 0.609264,0.276 0.609264,0.60927 v 3.88348 c 0.296273,-0.0402 0.529167,-0.2995 0.529167,-0.60565 v -3.807 c 0,-0.33327 -0.275997,-0.60927 -0.609264,-0.60927 z" />
      <path
         style="color:#000000;fill:#d0e2ee;stroke-width:3.00429;stroke-linecap:round;stroke-linejoin:round;stroke-miterlimit:1.5;-inkscape-stroke:none"
         d="m 264.91211,47 h -1.86523 c -1.25943,0 -2.31055,1.043282 -2.31055,2.302734 v 11.390625 c 0,1.259415 1.05109,2.310547 2.31055,2.310547 h 9.38867 c 1.25946,0 2.30273,-1.051132 2.30273,-2.310547 V 49.302734 C 274.73828,48.043282 273.69497,47 272.43555,47 h -1.87305 c -0.41604,-1.15948 -1.49323,-2 -2.8252,-2 -1.29924,0.03255 -2.41557,0.863438 -2.82519,2 z"
         transform="matrix(0.26458334,0,0,0.26458334,0,280.06666)"
         id="path2596773"
         sodipodi:nodetypes="cssssssssccc" />
      <path
         style="color:#000000;fill:#143441;stroke-width:0.794883;stroke-linecap:round;stroke-linejoin:round;stroke-miterlimit:1.5;-inkscape-stroke:none"
         d="m 70.044922,293.56055 a 0.2645835,0.2645835 0 0 0 -0.263672,0.26367 0.2645835,0.2645835 0 0 0 0.263672,0.26562 h 1.58789 a 0.2645835,0.2645835 0 0 0 0.265625,-0.26562 0.2645835,0.2645835 0 0 0 -0.265625,-0.26367 z"
         id="path62039" />
      <path
         style="color:#000000;fill:#143441;stroke-width:0.794883;stroke-linecap:round;stroke-linejoin:round;stroke-miterlimit:1.5;-inkscape-stroke:none"
         d="m 70.044922,294.48633 a 0.2645835,0.2645835 0 0 0 -0.263672,0.26562 0.2645835,0.2645835 0 0 0 0.263672,0.26367 h 1.58789 a 0.2645835,0.2645835 0 0 0 0.265625,-0.26367 0.2645835,0.2645835 0 0 0 -0.265625,-0.26562 z"
         id="path62315" />
      <path
         id="path2596799"
         style="color:#000000;fill:#66342d;stroke-width:3.00429;stroke-linecap:round;stroke-linejoin:round;stroke-miterlimit:1.5;-inkscape-stroke:none"
         d="m 246.43164,57 a 1.0001006,1.0001006 0 0 0 -1.02734,0.998047 v 5.005859 h 7.0039 v -5.005859 a 1.0001006,1.0001006 0 0 0 -1.32031,-0.945313 l -2.60547,0.865235 -1.63281,-0.8125 A 1.0001006,1.0001006 0 0 0 246.43164,57 Z"
         transform="matrix(0.26458334,0,0,0.26458334,0,280.06666)" />
      <path
         id="path916935"
         style="fill:#ff7247;fill-opacity:1;stroke-width:3.00429;stroke-linecap:round;stroke-linejoin:round;stroke-miterlimit:1.5"
         d="m 260.85352,24.167969 a 1.0001006,1.0001006 0 0 0 -0.98243,0.78125 l -0.50781,2.3125 c 1.4683,0.807487 3.27323,1.298828 5.35938,1.298828 2.0999,-2.5e-5 3.91319,-0.497402 5.38672,-1.314453 l -0.50782,-2.296875 a 1.0001006,1.0001006 0 0 0 -0.97461,-0.78125 z"
         transform="matrix(0.26458334,0,0,0.26458334,0,280.06666)" />
      <path
         style="color:#000000;fill:#ffa185;stroke-width:0.794883;stroke-linecap:round;stroke-linejoin:round;stroke-miterlimit:1.5;-inkscape-stroke:none"
         d="m 67.693544,283.36723 c -0.156816,8.2e-4 -0.27881,0.13709 -0.261998,0.29301 l 0.0279,0.25786 c -0.337317,0.0916 -0.588595,0.40282 -0.588595,0.7674 0,0.43524 0.357997,0.79323 0.793234,0.79323 0.04202,0 0.07473,-0.002 0.101285,-0.004 0.09543,0.35928 0.268865,0.75732 0.588079,1.08779 0.365086,0.37796 0.924005,0.64854 1.687754,0.64854 0.763743,-10e-6 1.322146,-0.27057 1.687234,-0.64854 0.318638,-0.32988 0.49289,-0.72826 0.588595,-1.08728 0.02984,0.002 0.06366,0.004 0.100769,0.004 0.435237,0 0.795301,-0.35953 0.795301,-0.79478 0,-0.36392 -0.251759,-0.67359 -0.588595,-0.76533 l 0.02791,-0.25838 c 0.01688,-0.15669 -0.105953,-0.29336 -0.263552,-0.29301 z"
         id="path2596805" />
      <path
         style="color:#000000;fill:#143441;fill-opacity:1;stroke-width:0.794883;stroke-linecap:round;stroke-linejoin:round;stroke-miterlimit:1.5"
         d="m 70.045757,295.41211 a 0.2645835,0.2645835 0 0 0 -0.265625,0.26562 0.2645835,0.2645835 0 0 0 0.265625,0.26368 0.2645835,0.2645835 0 0 0 0.263672,-0.26368 0.2645835,0.2645835 0 0 0 -0.263672,-0.26562 z"
         id="path67578" />
      <path
         style="color:#000000;fill:#143441;fill-opacity:1;stroke-width:0.794883;stroke-linecap:round;stroke-linejoin:round;stroke-miterlimit:1.5"
         d="m 70.840421,295.41211 a 0.2645835,0.2645835 0 0 0 -0.265625,0.26562 0.2645835,0.2645835 0 0 0 0.265625,0.26368 0.2645835,0.2645835 0 0 0 0.263671,-0.26368 0.2645835,0.2645835 0 0 0 -0.263671,-0.26562 z"
         id="path74603" />
      <path
         style="color:#000000;fill:#b01d47;fill-opacity:1;stroke-width:0.794883;stroke-linecap:round;stroke-linejoin:round;stroke-miterlimit:1.5;-inkscape-stroke:none"
         d="m 68.400391,287.59961 a 0.26460996,0.26460996 0 0 0 -0.306641,0.0488 l -0.587891,0.58789 a 0.26460996,0.26460996 0 0 0 0,0.375 l 1.470703,1.46875 a 0.26460996,0.26460996 0 0 0 0.398438,-0.0274 l 0.882812,-1.17578 a 0.26460996,0.26460996 0 0 0 -0.09375,-0.39648 z"
         id="path2596833" />
      <path
         style="color:#000000;fill:#b01d47;fill-opacity:1;stroke-width:0.794883;stroke-linecap:round;stroke-linejoin:round;stroke-miterlimit:1.5;-inkscape-stroke:none"
         d="m 71.691406,287.59961 -1.763672,0.88086 a 0.26460996,0.26460996 0 0 0 -0.09375,0.39648 l 0.882813,1.17578 a 0.26460996,0.26460996 0 0 0 0.398437,0.0274 l 1.46875,-1.46875 a 0.26460996,0.26460996 0 0 0 0,-0.375 l -0.58789,-0.58789 a 0.26460996,0.26460996 0 0 0 -0.304688,-0.0488 z"
         id="path2596839" />
      <path
         style="color:#000000;fill:#b01d47;fill-opacity:1;stroke-width:3.00429;stroke-linecap:round;stroke-linejoin:round;stroke-miterlimit:1.5;-inkscape-stroke:none"
         d="m 274.48047,10.341793 c -0.76695,-0.5646615 -1.81418,-0.8704125 -3.07813,-0.8652345 l -13.33203,4e-6 c -1.25167,-0.00295 -2.29073,0.3012266 -3.05469,0.8574215 -0.76566,0.557518 -1.27734,1.396461 -1.27734,2.30957 0,1.06214 0.7605,1.830564 1.56445,2.229493 0.80397,0.398967 1.76828,0.614997 2.82813,0.761719 2.11971,0.293669 4.63722,0.287865 6.60547,0.287109 1.96825,8.31e-4 4.49553,0.0047 6.61523,-0.287109 1.05985,-0.146646 2.02221,-0.362714 2.82617,-0.761719 0.80396,-0.398929 1.5586,-1.167353 1.5586,-2.21094 0,-0.925087 -0.48891,-1.755615 -1.25586,-2.320314 z"
         transform="matrix(0.26458334,0,0,0.26458334,0,280.06666)"
         id="path2596845"
         sodipodi:nodetypes="sccccscccccs" />
      <path
         id="path2596793"
         style="color:#000000;fill:#66342d;stroke-width:3.00429;stroke-linecap:round;stroke-linejoin:round;stroke-miterlimit:1.5;-inkscape-stroke:none"
         d="M 245.4043,44.001953 V 49 a 1.0001006,1.0001006 0 0 0 1.0039,0.996094 h 4.9961 A 1.0001006,1.0001006 0 0 0 252.4082,49 v -4.998047 z"
         transform="matrix(0.26458334,0,0,0.26458334,0,280.06666)" />
      <path
         id="path938154"
         style="color:#000000;fill:#b01d47;fill-opacity:1;stroke-width:0.794883;stroke-linecap:round;stroke-linejoin:round;stroke-miterlimit:1.5;-inkscape-stroke:none"
         d="m 70.044822,280.33227 c -1.087583,0 -1.774282,0.44074 -2.150255,0.98341 0.391535,-0.27308 0.923798,-0.45424 1.621089,-0.45424 1.128329,0 1.827643,0.47448 2.193663,1.0449 0.289181,0.45068 0.385519,0.93969 0.413411,1.30638 h 0.275953 a 0.26460996,0.26460996 0 0 0 0.263551,-0.26562 c 0,-0.36685 -0.05773,-0.9995 -0.423749,-1.56993 -0.366019,-0.57042 -1.065334,-1.0449 -2.193663,-1.0449 z" />
      <path
         id="path922056"
         style="color:#000000;fill:#801231;fill-opacity:1;stroke-width:0.794883;stroke-linecap:round;stroke-linejoin:round;stroke-miterlimit:1.5;-inkscape-stroke:none"
         d="m 68.281105,282.574 c -0.331171,-7.7e-4 -0.606089,0.0797 -0.80822,0.22686 -0.143277,0.10433 -0.252447,0.24624 -0.304374,0.40566 0.166137,-0.0677 0.362111,-0.10387 0.583427,-0.10335 h 3.527433 c 0.33442,-10e-4 0.6115,0.0795 0.814422,0.22892 0.202922,0.14941 0.33228,0.36916 0.33228,0.61392 0,0.0387 -0.004,0.0759 -0.01138,0.11162 0.04418,-0.017 0.087,-0.0354 0.128156,-0.0558 0.212714,-0.10555 0.412379,-0.30886 0.412379,-0.58498 0,-0.24476 -0.129357,-0.4645 -0.332279,-0.61391 -0.202922,-0.1494 -0.480002,-0.2303 -0.814422,-0.22893 z" />
      <path
         id="path940701"
         style="color:#000000;fill:#801231;fill-opacity:1;stroke-width:0.794883;stroke-linecap:round;stroke-linejoin:round;stroke-miterlimit:1.5;-inkscape-stroke:none"
         d="m 68.280589,287.57111 a 0.26460996,0.26460996 0 0 0 -0.187069,0.0775 l -0.217559,0.21755 1.2299,0.61444 a 0.26460996,0.26460996 0 0 1 0.09354,0.39636 l -0.611849,0.81442 0.389122,0.3886 a 0.26460996,0.26460996 0 0 0 0.398426,-0.0274 l 0.882634,-1.17563 a 0.26460996,0.26460996 0 0 0 -0.09354,-0.39636 l -1.763717,-0.88109 a 0.26460996,0.26460996 0 0 0 -0.119888,-0.0284 z" />
      <path
         id="path942892"
         style="color:#000000;fill:#801231;fill-opacity:1;stroke-width:0.794883;stroke-linecap:round;stroke-linejoin:round;stroke-miterlimit:1.5;-inkscape-stroke:none"
         d="m 71.810607,287.57163 a 0.26460996,0.26460996 0 0 0 -0.119375,0.0279 l -1.763715,0.88109 a 0.26460996,0.26460996 0 0 0 -0.09354,0.39636 l 0.882634,1.17563 a 0.26460996,0.26460996 0 0 0 0.398426,0.0274 l 0.388607,-0.3886 -0.611333,-0.81442 a 0.26460996,0.26460996 0 0 1 0.09354,-0.39636 l 1.228865,-0.61392 -0.218591,-0.21807 a 0.26460996,0.26460996 0 0 0 -0.185517,-0.077 z" />
      <path
         id="path1016603"
         style="color:#000000;fill:#311a12;fill-opacity:1;stroke-width:0.794883;stroke-linecap:round;stroke-linejoin:round;stroke-miterlimit:1.5;-inkscape-stroke:none"
         d="m 64.929889,291.70884 v 0.52917 h 1.853116 v -0.52917 z" />
      <path
         id="path1028089"
         style="color:#000000;fill:#a8c2e1;fill-opacity:1;stroke-width:0.794883;stroke-linecap:round;stroke-linejoin:round;stroke-miterlimit:1.5;-inkscape-stroke:none"
         d="m 70.838572,291.97291 c -0.343757,0.009 -0.638863,0.22846 -0.747241,0.52917 h -0.493509 c -0.307922,0 -0.568841,0.2356 -0.606682,0.53433 0.02542,-0.003 0.05131,-0.005 0.07752,-0.005 h 2.484086 c 0.333219,0 0.609264,0.27604 0.609264,0.60927 v 3.01377 c 0,0.0262 -0.0019,0.0521 -0.0052,0.0775 0.298733,-0.0378 0.534334,-0.29876 0.534334,-0.60668 v -3.01377 c -8e-6,-0.33323 -0.276053,-0.60926 -0.609272,-0.60926 H 71.58633 c -0.110077,-0.30678 -0.39534,-0.52917 -0.747758,-0.52917 z" />
    </g>
  </g>
</svg>
