<?xml version="1.0" encoding="UTF-8" standalone="no"?>
<svg
   width="64pt"
   height="64pt"
   viewBox="0 0 22.577778 22.577778"
   version="1.1"
   id="svg831"
   inkscape:version="1.1.2 (1:1.1+202202050950+0a00cf5339)"
   sodipodi:docname="18 - Rating.svg"
   inkscape:export-filename="/media/taufikramadhan/Data/Tr Design Studio/Project Design/TR Creative Design/Icon Design/Project Hiring/Icon Icons/019 - Commerce And Shopping/5 - Send/18 - Rating.png"
   inkscape:export-xdpi="576"
   inkscape:export-ydpi="576"
   xmlns:inkscape="http://www.inkscape.org/namespaces/inkscape"
   xmlns:sodipodi="http://sodipodi.sourceforge.net/DTD/sodipodi-0.dtd"
   xmlns="http://www.w3.org/2000/svg"
   xmlns:svg="http://www.w3.org/2000/svg"
   xmlns:rdf="http://www.w3.org/1999/02/22-rdf-syntax-ns#"
   xmlns:cc="http://creativecommons.org/ns#"
   xmlns:dc="http://purl.org/dc/elements/1.1/">
  <defs
     id="defs825">
    <pattern
       id="EMFhbasepattern"
       patternUnits="userSpaceOnUse"
       width="6"
       height="6"
       x="0"
       y="0" />
    <pattern
       id="EMFhbasepattern-9"
       patternUnits="userSpaceOnUse"
       width="6"
       height="6"
       x="0"
       y="0" />
    <pattern
       id="EMFhbasepattern-0"
       patternUnits="userSpaceOnUse"
       width="6"
       height="6"
       x="0"
       y="0" />
    <pattern
       id="EMFhbasepattern-7"
       patternUnits="userSpaceOnUse"
       width="6"
       height="6"
       x="0"
       y="0" />
    <pattern
       id="EMFhbasepattern-2"
       patternUnits="userSpaceOnUse"
       width="6"
       height="6"
       x="0"
       y="0" />
    <pattern
       id="EMFhbasepattern-98"
       patternUnits="userSpaceOnUse"
       width="6"
       height="6"
       x="0"
       y="0" />
    <pattern
       id="EMFhbasepattern-6"
       patternUnits="userSpaceOnUse"
       width="6"
       height="6"
       x="0"
       y="0" />
    <pattern
       id="EMFhbasepattern-01"
       patternUnits="userSpaceOnUse"
       width="6"
       height="6"
       x="0"
       y="0" />
    <pattern
       id="EMFhbasepattern-07"
       patternUnits="userSpaceOnUse"
       width="6"
       height="6"
       x="0"
       y="0" />
    <pattern
       id="EMFhbasepattern-8"
       patternUnits="userSpaceOnUse"
       width="6"
       height="6"
       x="0"
       y="0" />
    <pattern
       id="EMFhbasepattern-4"
       patternUnits="userSpaceOnUse"
       width="6"
       height="6"
       x="0"
       y="0" />
    <pattern
       id="EMFhbasepattern-40"
       patternUnits="userSpaceOnUse"
       width="6"
       height="6"
       x="0"
       y="0" />
    <pattern
       id="EMFhbasepattern-08"
       patternUnits="userSpaceOnUse"
       width="6"
       height="6"
       x="0"
       y="0" />
    <pattern
       id="EMFhbasepattern-04"
       patternUnits="userSpaceOnUse"
       width="6"
       height="6"
       x="0"
       y="0" />
    <pattern
       id="EMFhbasepattern-014"
       patternUnits="userSpaceOnUse"
       width="6"
       height="6"
       x="0"
       y="0" />
    <pattern
       id="EMFhbasepattern-27"
       patternUnits="userSpaceOnUse"
       width="6"
       height="6"
       x="0"
       y="0" />
    <pattern
       id="EMFhbasepattern-09"
       patternUnits="userSpaceOnUse"
       width="6"
       height="6"
       x="0"
       y="0" />
    <pattern
       id="EMFhbasepattern-5"
       patternUnits="userSpaceOnUse"
       width="6"
       height="6"
       x="0"
       y="0" />
    <pattern
       id="EMFhbasepattern-018"
       patternUnits="userSpaceOnUse"
       width="6"
       height="6"
       x="0"
       y="0" />
  </defs>
  <sodipodi:namedview
     id="base"
     pagecolor="#ffffff"
     bordercolor="#666666"
     borderopacity="1.0"
     inkscape:pageopacity="0.0"
     inkscape:pageshadow="2"
     inkscape:zoom="4.4249417"
     inkscape:cx="41.243481"
     inkscape:cy="44.746352"
     inkscape:document-units="pt"
     inkscape:current-layer="layer1"
     showgrid="false"
     units="pt"
     inkscape:window-width="1366"
     inkscape:window-height="705"
     inkscape:window-x="0"
     inkscape:window-y="31"
     inkscape:window-maximized="1"
     inkscape:pagecheckerboard="true"
     inkscape:showpageshadow="false"
     inkscape:object-paths="true"
     inkscape:snap-intersection-paths="true"
     inkscape:snap-smooth-nodes="true"
     inkscape:snap-midpoints="true"
     showguides="true"
     inkscape:snap-bbox="true"
     inkscape:bbox-nodes="true"
     inkscape:snap-nodes="false"
     inkscape:snap-global="true"
     inkscape:document-rotation="0">
    <inkscape:grid
       type="xygrid"
       id="grid1378" />
    <sodipodi:guide
       position="0.97013831,21.607643"
       orientation="78.000048,0"
       id="guide1380"
       inkscape:locked="false" />
    <sodipodi:guide
       position="0.97013831,0.97013129"
       orientation="0,78.000005"
       id="guide1382"
       inkscape:locked="false" />
    <sodipodi:guide
       position="21.607639,0.97013129"
       orientation="-78.000048,0"
       id="guide1384"
       inkscape:locked="false" />
    <sodipodi:guide
       position="21.607639,21.607643"
       orientation="0,-78.000005"
       id="guide1386"
       inkscape:locked="false" />
  </sodipodi:namedview>
  <metadata
     id="metadata828">
    <rdf:RDF>
      <cc:Work
         rdf:about="">
        <dc:format>image/svg+xml</dc:format>
        <dc:type
           rdf:resource="http://purl.org/dc/dcmitype/StillImage" />
      </cc:Work>
    </rdf:RDF>
  </metadata>
  <g
     inkscape:label="Icon"
     inkscape:groupmode="layer"
     id="layer1"
     transform="translate(0,-274.42223)">
    <g
       id="g168288"
       style="display:inline;stroke-width:0.794897"
       transform="matrix(1.2580247,0,0,1.2580247,-114.48283,-115.64421)">
      <path
         style="color:#000000;fill:#dc1c4b;stroke-width:0.794897;stroke-linecap:round;stroke-linejoin:round;stroke-miterlimit:1.5;-inkscape-stroke:none"
         d="m 92.832031,311.36328 c -0.581364,0 -1.058596,0.47723 -1.058594,1.05859 v 12.96485 c -10e-7,0.40487 0.09303,0.75123 0.332032,0.99023 0.239001,0.239 0.585362,0.33203 0.990234,0.33203 h 13.757817 c 0.40487,0 0.75123,-0.093 0.99023,-0.33203 0.239,-0.239 0.33399,-0.58536 0.33398,-0.99023 v -12.96485 c 2e-5,-0.58137 -0.47723,-1.05859 -1.05859,-1.05859 z"
         id="path383500" />
      <path
         id="path153680"
         style="color:#000000;fill:#b01d47;fill-opacity:1;stroke-width:0.794897;stroke-linecap:round;stroke-linejoin:round;stroke-miterlimit:1.5;-inkscape-stroke:none"
         d="m 92.832063,311.36346 c -0.581364,0 -1.058852,0.47697 -1.05885,1.05833 v 1.73168 c 0.156195,-0.0912 0.337048,-0.14418 0.529683,-0.14418 h 14.286984 c 0.58136,0 1.05887,0.47697 1.05885,1.05834 v 11.45976 c 0.071,-0.0419 0.13606,-0.0916 0.19482,-0.15038 0.239,-0.239 0.33436,-0.58525 0.33435,-0.99012 v -12.9651 c 2e-5,-0.58137 -0.47749,-1.05833 -1.05885,-1.05833 z" />
      <path
         id="path383506"
         style="color:#000000;fill:#801231;stroke-width:3.00434;stroke-linecap:round;stroke-linejoin:round;stroke-miterlimit:1.5;-inkscape-stroke:none"
         d="m 350.86133,118.28711 c -2.19728,0 -4.00196,1.80273 -4.00195,4 v 2.99805 h 62.00195 v -2.99805 c 7e-5,-2.1973 -1.80469,-4 -4.00195,-4 z"
         transform="matrix(0.26458334,0,0,0.26458334,0,280.06666)" />
      <path
         style="color:#000000;fill:#ececec;stroke-width:0.794897;stroke-linecap:round;stroke-linejoin:round;stroke-miterlimit:1.5;-inkscape-stroke:none"
         d="m 96.005859,314.00977 a 0.2645835,0.2645835 0 0 0 -0.263672,0.26367 0.2645835,0.2645835 0 0 0 0.263672,0.26562 h 0.265625 a 0.2645835,0.2645835 0 0 0 0.263672,-0.26562 0.2645835,0.2645835 0 0 0 -0.263672,-0.26367 z"
         id="path104545" />
      <path
         style="color:#000000;fill:#ececec;stroke-width:0.794897;stroke-linecap:round;stroke-linejoin:round;stroke-miterlimit:1.5;-inkscape-stroke:none"
         d="m 97.330078,314.00977 a 0.2645835,0.2645835 0 0 0 -0.265625,0.26367 0.2645835,0.2645835 0 0 0 0.265625,0.26562 h 2.644531 a 0.2645835,0.2645835 0 0 0 0.265621,-0.26562 0.2645835,0.2645835 0 0 0 -0.265621,-0.26367 z"
         id="path104627" />
      <path
         style="color:#000000;fill:#ececec;stroke-width:3.00434;stroke-linecap:round;stroke-linejoin:round;stroke-miterlimit:1.5;-inkscape-stroke:none"
         d="m 353.85742,137.28711 c -1.64471,0 -2.99609,1.35335 -2.99609,2.99805 v 29.00195 c -2e-5,2.40922 2.87147,3.84591 4.79883,2.40039 l 4.53125,-3.4043 h 41.58984 a 1.0000006,1.0000006 0 0 0 0.041,-0.006 1.0000006,1.0000006 0 0 0 0.0332,0.006 c 1.6447,0 3.00391,-1.35139 3.00391,-2.99609 v -25.00195 c 0,-1.64467 -1.35921,-2.99805 -3.00391,-2.99805 z"
         transform="matrix(0.26458334,0,0,0.26458334,0,280.06666)"
         id="path383512" />
      <path
         style="color:#000000;fill:#ececec;stroke-width:0.794897;stroke-linecap:round;stroke-linejoin:round;stroke-miterlimit:1.5;-inkscape-stroke:none"
         d="m 96.005859,315.06836 a 0.2645835,0.2645835 0 0 0 -0.263672,0.26367 0.2645835,0.2645835 0 0 0 0.263672,0.26367 h 2.646485 a 0.2645835,0.2645835 0 0 0 0.263672,-0.26367 0.2645835,0.2645835 0 0 0 -0.263672,-0.26367 z"
         id="path104842" />
      <path
         style="color:#000000;fill:#ececec;stroke-width:0.794897;stroke-linecap:round;stroke-linejoin:round;stroke-miterlimit:1.5;-inkscape-stroke:none"
         d="m 106.58984,314.00977 a 0.2645835,0.2645835 0 0 0 -0.26367,0.26367 0.2645835,0.2645835 0 0 0 0.26367,0.26562 h 0.26368 a 0.2645835,0.2645835 0 0 0 0.26562,-0.26562 0.2645835,0.2645835 0 0 0 -0.26562,-0.26367 z"
         id="path105578" />
      <path
         style="color:#000000;fill:#143441;stroke-width:0.794897;stroke-linecap:round;stroke-linejoin:round;stroke-miterlimit:1.5;-inkscape-stroke:none"
         d="m 104.47266,321.94727 a 0.2645835,0.2645835 0 0 0 -0.26368,0.26367 0.2645835,0.2645835 0 0 0 0.26368,0.26562 h 1.05859 a 0.2645835,0.2645835 0 0 0 0.26563,-0.26562 0.2645835,0.2645835 0 0 0 -0.26563,-0.26367 z"
         id="path385652" />
      <path
         style="color:#000000;fill:#143441;stroke-width:0.794897;stroke-linecap:round;stroke-linejoin:round;stroke-miterlimit:1.5;-inkscape-stroke:none"
         d="m 96.800781,321.94727 a 0.2645835,0.2645835 0 0 0 -0.265625,0.26367 0.2645835,0.2645835 0 0 0 0.265625,0.26562 h 6.478519 a 0.2645835,0.2645835 0 0 0 0.26562,-0.26562 0.2645835,0.2645835 0 0 0 -0.26562,-0.26367 z"
         id="path385650" />
      <path
         style="color:#000000;fill:#143441;stroke-width:0.794897;stroke-linecap:round;stroke-linejoin:round;stroke-miterlimit:1.5;-inkscape-stroke:none"
         d="m 94.419922,321.94727 a 0.2645835,0.2645835 0 0 0 -0.265625,0.26367 0.2645835,0.2645835 0 0 0 0.265625,0.26562 h 1.322265 a 0.2645835,0.2645835 0 0 0 0.263672,-0.26562 0.2645835,0.2645835 0 0 0 -0.263672,-0.26367 z"
         id="path106444" />
      <path
         style="color:#000000;fill:#143441;stroke-width:0.794897;stroke-linecap:round;stroke-linejoin:round;stroke-miterlimit:1.5;-inkscape-stroke:none"
         d="m 94.419922,323.00586 a 0.2645835,0.2645835 0 0 0 -0.265625,0.26367 0.2645835,0.2645835 0 0 0 0.265625,0.26367 h 6.173828 a 0.2645835,0.2645835 0 0 0 0.26563,-0.26367 0.2645835,0.2645835 0 0 0 -0.26563,-0.26367 z"
         id="path106526" />
      <path
         style="color:#000000;fill:#fd913c;stroke-width:0.794897;stroke-linecap:round;stroke-linejoin:round;stroke-miterlimit:1.5;-inkscape-stroke:none"
         d="m 93.625,313.74414 c -0.364962,0 -0.666016,0.303 -0.666016,0.66797 v 0.78125 c 0,0.36496 0.301046,0.66797 0.666016,0.66797 h 0.919922 c 0.36497,0 0.667969,-0.30301 0.667969,-0.66797 v -0.78125 c 0,-0.36497 -0.303007,-0.66797 -0.667969,-0.66797 z"
         id="path383566" />
      <path
         style="color:#000000;fill:#fca311;stroke-width:0.794897;stroke-linecap:round;stroke-linejoin:round;stroke-miterlimit:1.5;-inkscape-stroke:none"
         d="m 95.664062,317.97852 c -0.223855,0 -0.448195,0.11231 -0.558593,0.33593 l -0.214844,0.43164 -0.476563,0.0703 c -0.493529,0.0718 -0.702841,0.71244 -0.345703,1.06054 l 0.345703,0.33789 -0.08008,0.47461 c -0.08424,0.49158 0.460908,0.88838 0.902344,0.65625 l 0.427734,-0.22461 0.425782,0.22461 c 0.441436,0.23213 0.988535,-0.16467 0.904297,-0.65625 l -0.08203,-0.47461 0.345703,-0.33789 c 0.357185,-0.3481 0.14786,-0.98877 -0.345703,-1.06054 l -0.478515,-0.0703 -0.212891,-0.43164 c -0.110398,-0.22362 -0.332785,-0.33593 -0.556641,-0.33593 z"
         id="path383524" />
      <path
         style="color:#000000;fill:#fca311;stroke-width:0.794897;stroke-linecap:round;stroke-linejoin:round;stroke-miterlimit:1.5;-inkscape-stroke:none"
         d="m 104.02344,317.97852 c -0.22386,0 -0.4482,0.11231 -0.5586,0.33593 l -0.21484,0.43164 -0.47656,0.0703 c -0.49353,0.0718 -0.70284,0.71244 -0.34571,1.06054 l 0.34571,0.33789 -0.082,0.47461 c -0.0842,0.49158 0.46286,0.88838 0.90429,0.65625 l 0.42774,-0.22461 0.42578,0.22461 c 0.44144,0.23213 0.98853,-0.16467 0.9043,-0.65625 l -0.082,-0.47461 0.34571,-0.33789 c 0.35718,-0.3481 0.14785,-0.98877 -0.34571,-1.06054 l -0.47851,-0.0703 -0.21289,-0.43164 c -0.1104,-0.22362 -0.33279,-0.33593 -0.55664,-0.33593 z"
         id="path383530" />
      <path
         style="color:#000000;fill:#fca311;stroke-width:0.794897;stroke-linecap:round;stroke-linejoin:round;stroke-miterlimit:1.5;-inkscape-stroke:none"
         d="m 99.851562,317.19531 c -0.248268,0 -0.496186,0.12399 -0.61914,0.37305 l -0.265625,0.54101 -0.595703,0.0859 c -0.549673,0.0799 -0.78059,0.79005 -0.382813,1.17774 l 0.429688,0.41992 -0.101563,0.59375 c -0.09381,0.54748 0.510315,0.98703 1.001953,0.72851 l 0.533203,-0.28125 0.533208,0.28125 c 0.49163,0.25852 1.09576,-0.18103 1.00195,-0.72851 l -0.10156,-0.59375 0.42968,-0.41992 c 0.39783,-0.3877 0.16885,-1.09782 -0.38086,-1.17774 l -0.59765,-0.0879 -0.26563,-0.53906 c -0.12295,-0.24906 -0.37087,-0.37305 -0.619138,-0.37305 z"
         id="path383536" />
      <path
         id="path101594"
         style="color:#000000;fill:#fd750d;fill-opacity:1;stroke-width:0.794897;stroke-linecap:round;stroke-linejoin:round;stroke-miterlimit:1.5;-inkscape-stroke:none"
         d="m 93.607726,313.74419 c -0.310055,0.008 -0.570614,0.2346 -0.634072,0.52917 h 1.042316 c 0.364961,0 0.66766,0.3032 0.66766,0.66818 v 0.90485 c 0.299955,-0.065 0.529167,-0.33568 0.529167,-0.65319 v -0.78083 c 0,-0.36497 -0.3027,-0.66818 -0.667661,-0.66818 h -0.920358 c -0.0057,0 -0.01138,-1.5e-4 -0.01704,0 z" />
      <path
         id="path119692"
         style="color:#000000;fill:#cccccc;fill-opacity:1;stroke-width:0.794897;stroke-linecap:round;stroke-linejoin:round;stroke-miterlimit:1.5;-inkscape-stroke:none"
         d="m 93.624778,316.39054 c -0.342577,0 -0.636407,0.22243 -0.746207,0.52917 H 105.7951 c 0.43516,0 0.79478,0.35808 0.79478,0.79323 v 6.83162 c 0.30659,-0.1101 0.52917,-0.40352 0.52917,-0.74569 v -6.6151 c 0,-0.43515 -0.35962,-0.79323 -0.79478,-0.79323 z" />
      <path
         id="path134341"
         style="color:#000000;fill:#ec7523;fill-opacity:1;stroke-width:0.794897;stroke-linecap:round;stroke-linejoin:round;stroke-miterlimit:1.5;-inkscape-stroke:none"
         d="m 95.66393,317.97856 c -0.09078,0 -0.181274,0.0184 -0.264584,0.0553 0.121378,0.0541 0.226426,0.14783 0.291973,0.2806 l 0.212908,0.4315 0.478523,0.0703 c 0.493561,0.0718 0.7029,0.71282 0.345715,1.06092 l -0.345715,0.33745 0.08217,0.47491 c 0.04994,0.29144 -0.121944,0.54951 -0.362252,0.663 0.439079,0.21764 0.974826,-0.17626 0.891419,-0.663 l -0.08217,-0.47491 0.345716,-0.33745 c 0.357184,-0.3481 0.147846,-0.98915 -0.345716,-1.06092 l -0.478522,-0.0703 -0.212908,-0.4315 c -0.110397,-0.22361 -0.3327,-0.33589 -0.556556,-0.33589 z"
         sodipodi:nodetypes="sccccccccccccccs" />
      <path
         id="path148819"
         style="color:#000000;fill:#ec7523;fill-opacity:1;stroke-width:0.794897;stroke-linecap:round;stroke-linejoin:round;stroke-miterlimit:1.5;-inkscape-stroke:none"
         d="m 104.02356,317.97856 c -0.0908,0 -0.18128,0.0184 -0.26459,0.0553 0.12138,0.0541 0.22643,0.14783 0.29198,0.2806 l 0.2129,0.4315 0.47853,0.0703 c 0.49356,0.0718 0.7029,0.71282 0.34571,1.06092 l -0.34571,0.33745 0.0822,0.47491 c 0.0499,0.29144 -0.12195,0.54951 -0.36226,0.663 0.43908,0.21764 0.97483,-0.17626 0.89142,-0.663 l -0.0822,-0.47491 0.34572,-0.33745 c 0.35718,-0.3481 0.14785,-0.98915 -0.34572,-1.06092 l -0.47852,-0.0703 -0.21291,-0.4315 c -0.11039,-0.22361 -0.3327,-0.33589 -0.55655,-0.33589 z"
         sodipodi:nodetypes="sccccccccccccccs" />
      <path
         id="path148821"
         style="color:#000000;fill:#ec7523;fill-opacity:1;stroke-width:0.794897;stroke-linecap:round;stroke-linejoin:round;stroke-miterlimit:1.5;-inkscape-stroke:none"
         d="m 99.851789,317.19514 c -0.09033,0 -0.180863,0.0167 -0.265101,0.0496 0.14747,0.0575 0.276722,0.1649 0.355017,0.3235 l 0.265615,0.53898 0.59738,0.0879 c 0.54971,0.0799 0.77869,0.79001 0.38086,1.17771 l -0.42943,0.42013 0.10128,0.59376 c 0.0576,0.3361 -0.14793,0.6311 -0.42891,0.74931 0.48291,0.21153 1.04913,-0.21794 0.95808,-0.74931 l -0.10129,-0.59376 0.42943,-0.42013 c 0.39783,-0.3877 0.16886,-1.09779 -0.38085,-1.17771 l -0.59738,-0.0879 -0.26562,-0.53898 c -0.12295,-0.24906 -0.37081,-0.37311 -0.619081,-0.37311 z"
         sodipodi:nodetypes="sccccccccccccccss" />
      <path
         id="path158016"
         style="color:#000000;fill:#590d22;fill-opacity:1;stroke-width:0.794897;stroke-linecap:round;stroke-linejoin:round;stroke-miterlimit:1.5;-inkscape-stroke:none"
         d="m 92.832063,311.36346 c -0.426903,0 -0.797336,0.25739 -0.964282,0.62425 0.133067,-0.0607 0.280241,-0.0951 0.435115,-0.0951 h 14.286984 c 0.58136,0 1.05886,0.47696 1.05885,1.05833 v 0.26407 h 0.52917 v -0.79324 c 1e-5,-0.58137 -0.47749,-1.05833 -1.05885,-1.05833 z" />
    </g>
  </g>
</svg>
