<svg width="800" height="800" viewBox="0 0 800 800" fill="none" xmlns="http://www.w3.org/2000/svg">
<g clip-path="url(#clip0_118_91)">
<path d="M777.055 666.401L639.243 528.582C615.232 504.557 579.47 499.748 550.41 513.534L515.901 479.024C549.373 428.409 543.85 359.413 499.317 314.871L403.921 219.475C379.552 195.107 342.612 231.96 367.034 256.363L433.181 322.51L396.284 359.405L330.14 293.262C305.771 268.893 268.83 305.746 293.252 330.149L359.394 396.291L322.496 433.187L256.355 367.046C231.986 342.677 195.046 379.53 219.468 403.934L314.863 499.329C359.382 543.864 428.381 549.414 479.018 515.917L513.524 550.425C499.735 579.487 504.553 615.242 528.571 639.256L666.383 777.084C696.898 807.583 746.555 807.594 777.055 777.075C807.642 746.486 807.658 696.987 777.055 666.401Z" fill="#C5BAFE"/>
<path d="M399.991 104.356C321.138 104.356 246.919 135.138 191.028 191.039C135.127 246.93 104.346 321.146 104.346 400.001C104.346 563.023 236.969 695.647 399.991 695.647C432.724 695.647 464.785 690.098 495.24 679.706L491.674 676.14C466.726 651.2 453.623 617.659 453.759 583.632C438.645 587.606 422.985 589.645 407.088 589.645C358.262 589.645 312.407 570.667 277.965 536.215L182.577 440.82C135.013 393.337 165.977 311.04 233.554 307.347C235.724 267.611 267.53 235.738 307.338 233.563C311.029 165.997 393.291 135.041 440.81 182.586L536.206 277.982C582.96 324.737 599.654 392.296 583.571 453.726C583.828 453.727 584.081 453.727 584.337 453.727C619.059 453.727 651.668 467.212 676.14 491.693L679.697 495.249C690.09 464.793 695.637 432.734 695.637 400.001C695.637 236.98 563.014 104.356 399.991 104.356Z" fill="#005495"/>
<path d="M399.991 0.00933838C293.31 0.00933838 192.914 41.661 117.286 117.289C41.6517 192.905 0 293.311 0 400.001C0 620.554 179.438 799.992 399.991 799.992C461.762 799.992 521.399 785.916 575.179 759.655L535.592 720.062C492.945 738.192 447.046 747.82 399.991 747.82C208.208 747.82 52.1735 591.786 52.1735 400.002C52.1735 307.207 88.3814 219.886 154.142 154.144C219.877 88.3939 307.196 52.1844 399.993 52.1844C591.776 52.1844 747.811 208.219 747.811 400.002C747.811 447.049 738.18 492.951 720.048 535.606L759.234 574.793C785.616 520.563 799.984 460.732 799.984 400.002C799.983 179.447 620.545 0.00933838 399.991 0.00933838Z" fill="#005495"/>
</g>
<defs>
<clipPath id="clip0_118_91">
<rect width="800" height="800" fill="white"/>
</clipPath>
</defs>
</svg>
